<svg xmlns="http://www.w3.org/2000/svg" xmlns:xlink="http://www.w3.org/1999/xlink" width="440" height="103.01" viewBox="0 0 440 103.01"><defs><clipPath id="b"><rect width="440" height="103.01"/></clipPath></defs><g id="a" clip-path="url(#b)"><g transform="translate(-231 -158)"><path d="M49.95-9.764a23,23,0,0,1-8.214,7.392A24.265,24.265,0,0,1,30.081.311,24.434,24.434,0,0,1,20.535-1.55a23.29,23.29,0,0,1-7.714-5.2,24.467,24.467,0,0,1-5.162-7.94A26.294,26.294,0,0,1,5.772-24.767,26.294,26.294,0,0,1,7.659-34.842a24.467,24.467,0,0,1,5.162-7.94,23.29,23.29,0,0,1,7.714-5.2,24.434,24.434,0,0,1,9.546-1.862,24.265,24.265,0,0,1,11.655,2.683A23,23,0,0,1,49.95-39.77V-71.529a3.169,3.169,0,0,1,.944-2.355,3.258,3.258,0,0,1,2.386-.931,3.258,3.258,0,0,1,2.387.931,3.169,3.169,0,0,1,.944,2.355V-3.412a3.169,3.169,0,0,1-.944,2.355,3.258,3.258,0,0,1-2.387.931,3.258,3.258,0,0,1-2.386-.931,3.169,3.169,0,0,1-.944-2.355Zm-37.518-15a22.178,22.178,0,0,0,1.332,7.83,18.06,18.06,0,0,0,3.83,6.187A17.244,17.244,0,0,0,23.476-6.7a19.441,19.441,0,0,0,7.6,1.424,18.9,18.9,0,0,0,7.77-1.533,18.058,18.058,0,0,0,5.938-4.216,18.653,18.653,0,0,0,3.83-6.242,21.225,21.225,0,0,0,1.332-7.5,21.225,21.225,0,0,0-1.332-7.5,18.653,18.653,0,0,0-3.83-6.242,18.058,18.058,0,0,0-5.938-4.216,18.9,18.9,0,0,0-7.77-1.533,19.441,19.441,0,0,0-7.6,1.424,17.244,17.244,0,0,0-5.883,4.052,18.06,18.06,0,0,0-3.83,6.187A22.178,22.178,0,0,0,12.432-24.767ZM93.351-49.845a23.232,23.232,0,0,1,9.38,1.862,22.3,22.3,0,0,1,7.382,5.147,23.308,23.308,0,0,1,4.829,7.775,27.014,27.014,0,0,1,1.72,9.747,2.559,2.559,0,0,1-.833,1.971,2.777,2.777,0,0,1-1.942.767H75.369a18.448,18.448,0,0,0,1.387,6.406,16.851,16.851,0,0,0,3.663,5.53,18.206,18.206,0,0,0,5.827,3.888,19.5,19.5,0,0,0,7.77,1.478,18.941,18.941,0,0,0,15.1-6.9,5.4,5.4,0,0,1,1.054-.986,2.5,2.5,0,0,1,1.5-.438,2.588,2.588,0,0,1,2.053.821,2.813,2.813,0,0,1,.722,1.916,3.5,3.5,0,0,1-.666,1.971,23.409,23.409,0,0,1-7.992,6.516A24.925,24.925,0,0,1,94.017.311,26.289,26.289,0,0,1,83.305-1.769,24.493,24.493,0,0,1,75.313-7.3a23.643,23.643,0,0,1-5-7.994,26.534,26.534,0,0,1-1.72-9.473,25.394,25.394,0,0,1,1.831-9.582,25.65,25.65,0,0,1,5.051-7.994,23.633,23.633,0,0,1,7.77-5.476A24.565,24.565,0,0,1,93.351-49.845Zm17.205,21.793a19.821,19.821,0,0,0-1.721-6.406,17.027,17.027,0,0,0-3.663-5.2A17.054,17.054,0,0,0,99.9-43.11a16.735,16.735,0,0,0-6.549-1.259,17.208,17.208,0,0,0-6.771,1.314,18.228,18.228,0,0,0-5.439,3.5A17.562,17.562,0,0,0,77.367-34.4a18.47,18.47,0,0,0-1.776,6.352Zm54.39,15.113a11.442,11.442,0,0,1-4.939,9.528Q155.067.311,145.743.311A31.518,31.518,0,0,1,135.42-1.331a26.188,26.188,0,0,1-8.325-4.6,3.009,3.009,0,0,1-1.332-2.519,2.255,2.255,0,0,1,.722-1.752,2.616,2.616,0,0,1,1.831-.657,3.271,3.271,0,0,1,1.443.274,6.3,6.3,0,0,1,1.11.712,23.686,23.686,0,0,0,7.16,3.833,25.278,25.278,0,0,0,8.047,1.314q5.883,0,9.158-2.135a6.563,6.563,0,0,0,3.275-5.749,5.7,5.7,0,0,0-1-3.45,9.185,9.185,0,0,0-2.72-2.409,17.938,17.938,0,0,0-4.051-1.752q-2.331-.712-4.995-1.478a68.4,68.4,0,0,1-9.268-3.176,26.215,26.215,0,0,1-5.994-3.5,11,11,0,0,1-3.219-4,11.663,11.663,0,0,1-.944-4.764,10.4,10.4,0,0,1,5.217-9.582q5.217-3.121,13.875-3.121a30.409,30.409,0,0,1,7.6.986,34.234,34.234,0,0,1,7.382,2.847,9.172,9.172,0,0,1,2.165,1.424,2.437,2.437,0,0,1,.833,1.862,2.431,2.431,0,0,1-.721,1.807,2.8,2.8,0,0,1-2.053.712,3.086,3.086,0,0,1-1.277-.274q-.61-.274-1.387-.712a29.584,29.584,0,0,0-5.994-2.355,24.64,24.64,0,0,0-6.66-.931,21.456,21.456,0,0,0-8.991,1.643,5.627,5.627,0,0,0-3.552,5.476,6.448,6.448,0,0,0,.666,2.957,7.207,7.207,0,0,0,2.22,2.464,18.723,18.723,0,0,0,4.162,2.19,66.871,66.871,0,0,0,6.494,2.135q4.107,1.2,7.548,2.409a25.777,25.777,0,0,1,5.883,2.847,12.82,12.82,0,0,1,3.829,3.888A10.332,10.332,0,0,1,164.946-12.94Zm18.426,9.528a3.169,3.169,0,0,1-.943,2.355,3.258,3.258,0,0,1-2.386.931,3.258,3.258,0,0,1-2.387-.931,3.169,3.169,0,0,1-.943-2.355v-42.71a3.169,3.169,0,0,1,.943-2.355,3.258,3.258,0,0,1,2.387-.931,3.258,3.258,0,0,1,2.386.931,3.169,3.169,0,0,1,.943,2.355Zm-7.548-59.575a3.993,3.993,0,0,1,1.221-2.957,4.1,4.1,0,0,1,3-1.2,4.1,4.1,0,0,1,3,1.2,3.993,3.993,0,0,1,1.221,2.957,3.993,3.993,0,0,1-1.221,2.957,4.1,4.1,0,0,1-3,1.2,4.1,4.1,0,0,1-3-1.2A3.993,3.993,0,0,1,175.824-62.987ZM239.538-11.3a19.762,19.762,0,0,1-8.27,7.392A24.944,24.944,0,0,1,220-1.222a26.954,26.954,0,0,1-9.6-1.7,22.942,22.942,0,0,1-7.826-4.873,23.156,23.156,0,0,1-5.273-7.666,25.128,25.128,0,0,1-1.942-10.075A25.128,25.128,0,0,1,197.3-35.609a23.156,23.156,0,0,1,5.273-7.666,22.942,22.942,0,0,1,7.826-4.873,26.954,26.954,0,0,1,9.6-1.7,23.511,23.511,0,0,1,6.771.931,26.818,26.818,0,0,1,5.605,2.355,19.443,19.443,0,0,1,4.273,3.231,21.749,21.749,0,0,1,2.886,3.559v-6.352a3.169,3.169,0,0,1,.944-2.355,3.258,3.258,0,0,1,2.386-.931,3.258,3.258,0,0,1,2.387.931,3.169,3.169,0,0,1,.943,2.355V-4.836a32.746,32.746,0,0,1-1.5,10.185,21.061,21.061,0,0,1-4.606,7.94,20.907,20.907,0,0,1-7.937,5.2,31.92,31.92,0,0,1-11.488,1.862,40.776,40.776,0,0,1-11.544-1.478,34.664,34.664,0,0,1-8.214-3.45,5.714,5.714,0,0,1-1.388-1.1,2.472,2.472,0,0,1-.61-1.752,2.22,2.22,0,0,1,.721-1.807,2.761,2.761,0,0,1,1.831-.6,4.189,4.189,0,0,1,1.5.274q.722.274,1.387.6a33.071,33.071,0,0,0,7.437,2.9,35.243,35.243,0,0,0,8.88,1.04,22.968,22.968,0,0,0,8.714-1.478,15.584,15.584,0,0,0,5.883-4.052,15.39,15.39,0,0,0,3.275-6.133,28.481,28.481,0,0,0,1-7.721ZM201.909-25.534a20.952,20.952,0,0,0,1.387,7.775,17.521,17.521,0,0,0,3.829,5.968,17.029,17.029,0,0,0,5.883,3.833,20.555,20.555,0,0,0,7.659,1.369A18.064,18.064,0,0,0,228.1-8.121a19.575,19.575,0,0,0,5.994-4.107,18.712,18.712,0,0,0,4-6.023,18.682,18.682,0,0,0,1.443-7.283,18.682,18.682,0,0,0-1.443-7.283,18.712,18.712,0,0,0-4-6.023,19.575,19.575,0,0,0-5.994-4.107,18.064,18.064,0,0,0-7.437-1.533,20.555,20.555,0,0,0-7.659,1.369,17.029,17.029,0,0,0-5.883,3.833,17.521,17.521,0,0,0-3.829,5.968A20.952,20.952,0,0,0,201.909-25.534ZM306.8-3.412a3.169,3.169,0,0,1-.944,2.355,3.258,3.258,0,0,1-2.387.931,3.258,3.258,0,0,1-2.387-.931,3.169,3.169,0,0,1-.943-2.355V-27.724q0-7.447-3.885-11.773T284.6-43.822a17.831,17.831,0,0,0-6.6,1.2,14.768,14.768,0,0,0-5.273,3.5,16.684,16.684,0,0,0-3.5,5.53,19.68,19.68,0,0,0-1.276,7.283V-3.412a3.169,3.169,0,0,1-.944,2.355,3.258,3.258,0,0,1-2.387.931,3.258,3.258,0,0,1-2.387-.931,3.169,3.169,0,0,1-.943-2.355v-42.71a3.169,3.169,0,0,1,.943-2.355,3.258,3.258,0,0,1,2.387-.931,3.258,3.258,0,0,1,2.387.931,3.169,3.169,0,0,1,.944,2.355v5.695a17.712,17.712,0,0,1,7.326-7.009,23.127,23.127,0,0,1,10.767-2.409,22.022,22.022,0,0,1,8.658,1.643,18.237,18.237,0,0,1,6.549,4.6,20.723,20.723,0,0,1,4.107,7.009,25.931,25.931,0,0,1,1.443,8.761Z" transform="translate(364.477 233)" fill="#fff"/><g transform="translate(231.281 171.903)"><g transform="translate(54.68)"><path d="M3728.515,184.545a5.541,5.541,0,1,0-7.633,7.982l0,0a20.212,20.212,0,0,1,5.136,13.87c0,10.745-7.25,19.482-18.176,19.482s-18.26-8.737-18.26-19.482a20.1,20.1,0,0,1,5.326-14.013,5.522,5.522,0,0,0-7.038-8.5l-.021-.024c-.1.1-.2.2-.307.3-.125.111-.249.221-.365.344a30.17,30.17,0,0,0-9.214,21.9,29.832,29.832,0,0,0,29.879,30.229c16.778,0,29.794-13.455,29.794-30.229A30.221,30.221,0,0,0,3728.515,184.545Z" transform="translate(-3677.961 -171.903)" fill="#fff"/><path d="M3707.8,205.535a6.49,6.49,0,0,1-6.483-6.482V178.387a6.439,6.439,0,1,1,12.877,0v20.666A6.446,6.446,0,0,1,3707.8,205.535Z" transform="translate(-3677.961 -171.903)" fill="#fff"/></g><path d="M3650.445,234.537c9.434,0,15.1,1.69,15.1,7.8.095,4.221-3.712,8.247-14.074,8.97-11.093.516-17.167-1.756-17.167-6.99C3634.307,237.188,3641.012,234.537,3650.445,234.537Zm22.96-50.781s4.737-1.173,4.553-5.319c0-4.731-4.327-5.282-5.741-5.345a5.876,5.876,0,0,0-1.744.152,12.111,12.111,0,0,0-7.795,6.019c-.116.207-.426.719-.965.286a26.033,26.033,0,0,0-12.417-3.134c-13.01,0-23.55,7.222-23.55,20.812a18.949,18.949,0,0,0,5.31,13.5c.144.151.376.481-.05.755-4.339,2.819-6.455,6.636-6.352,11.544.165,3.848,2.095,6.8,5.526,9.143.069.048.175.144.024.254a15.182,15.182,0,0,0-6.858,14.218c.113,1.247,1.3,15.375,26.888,14.514,28.217,0,28.353-17.153,28.353-18.647.108-6.234-2.285-10.882-6.576-13.852-5.388-3.884-12.785-4.083-18.562-4.083h-10.014c-2.888,0-6.3-.74-6.3-4.138a4.9,4.9,0,0,1,2.684-3.92.446.446,0,0,1,.4-.043,28.928,28.928,0,0,0,9.075,1.459c12.455,0,23.424-7.689,23.438-20.595a19.06,19.06,0,0,0-2.859-10.042.5.5,0,0,1-.022-.478,5.738,5.738,0,0,1,3.552-3.059Zm-24.109,2.9c6.341,0,10.173,4.433,10.173,10.568s-3.832,10.461-10.173,10.461-10.086-4.395-10.18-10.219C3639.131,191.179,3642.96,186.659,3649.3,186.659Z" transform="translate(-3623.281 -171.903)" fill="#fff"/></g></g></g></svg>